<?xml version="1.0" encoding="UTF-8"?>
<svg xmlns="http://www.w3.org/2000/svg" viewBox="122 212 367 367">
  <!-- 배경 정사각형 (보조 블루) -->
  <rect x="122" y="212" width="367" height="367" fill="#3D5BAD"/>
  <!-- 그림자 (진한 블루) -->
  <path fill-rule="nonzero" fill="#102458" d="M 319.09375 531.917969 C 383.074219 531.917969 434.9375 480.054688 434.9375 416.078125 C 434.9375 387.164062 424.320312 360.746094 406.804688 340.449219 C 414.605469 356.03125 419.019531 373.605469 419.019531 392.21875 C 419.019531 456.199219 367.15625 508.0625 303.175781 508.0625 C 286.164062 508.0625 270.027344 504.363281 255.472656 497.777344 L 255.472656 579.496094 L 271.390625 579.496094 L 271.390625 521.636719 C 285.945312 528.222656 302.082031 531.917969 319.09375 531.917969 "/>
  <!-- P 마크 본체 (흰) - evenodd 로 안 빈 영역 분리 -->
  <path fill-rule="evenodd" fill="#FFFFFF" d="M 122.34375 579.496094 L 187.335938 579.496094 L 187.335938 392.21875 C 187.335938 328.242188 239.199219 276.378906 303.175781 276.378906 C 348.539062 276.378906 387.789062 302.46875 406.804688 340.449219 C 424.320312 360.746094 434.9375 387.164062 434.9375 416.078125 C 434.9375 480.054688 383.074219 531.917969 319.09375 531.917969 C 302.082031 531.917969 285.941406 528.222656 271.390625 521.632812 L 271.390625 579.496094 L 489.183594 579.496094 L 489.183594 212.660156 L 122.34375 212.660156 Z M 122.34375 579.496094 "/>
  <!-- 안 작은 동그라미 (진한 블루) -->
  <path fill-rule="nonzero" fill="#102458" d="M 350.878906 392.21875 C 350.878906 387.59375 350.1875 383.136719 348.960938 378.910156 C 340.78125 372.328125 330.40625 368.375 319.09375 368.375 C 292.75 368.375 271.390625 389.730469 271.390625 416.078125 C 271.390625 420.703125 272.082031 425.160156 273.3125 429.386719 C 281.488281 435.964844 291.863281 439.921875 303.175781 439.921875 C 329.523438 439.921875 350.878906 418.566406 350.878906 392.21875 "/>
</svg>
