<?xml version="1.0" encoding="UTF-8"?>
<!-- 가로 결합 (lockup) — 마크 좌측 + "pathwave" 우측. 다크 배경용 흰색. -->
<svg xmlns="http://www.w3.org/2000/svg" viewBox="0 0 300 80" font-family="-apple-system, BlinkMacSystemFont, 'Pretendard', 'Segoe UI', system-ui, sans-serif">
  <!-- 마크 (61.14×73.26 비율을 65×80 영역에 배치) -->
  <g transform="translate(0, 3) scale(1.08)">
    <path fill="#FFFFFF" d="M34.94.35C18.49-2.25,2.3,9.94.29,26.69c-1.14,8.17,1.14,16.8,6.2,23.28,1.46,1.93,3.07,3.63,4.77,5.33v-24.96c0-10.66,8.64-19.31,19.31-19.31,7.56,0,14.1,4.35,17.27,10.68,2.92,3.38,4.69,7.79,4.69,12.6,0,10.66-8.64,19.31-19.31,19.31-2.84,0-5.53-.62-7.95-1.71v17.26c1.26,1.22,2.5,2.39,3.71,3.45,1.29,1.04,2.38.73,3.53-.28,3.85-3.5,8.77-8.67,12.9-12.68,2.73-2.76,5.37-5.09,7.92-8.06,4.9-5.59,7.85-13.04,7.8-20.66v-.05c.2-15.03-11.38-28.6-26.2-30.53Z"/>
    <path fill="#FFFFFF" d="M38.52,30.33c0-.77-.12-1.51-.32-2.22-1.36-1.1-3.09-1.76-4.98-1.76-4.39,0-7.95,3.56-7.95,7.95,0,.77.12,1.51.32,2.22,1.36,1.1,3.09,1.76,4.98,1.76,4.39,0,7.95-3.56,7.95-7.95Z"/>
    <path fill="#C9CACA" d="M33.22,53.62c10.66,0,19.31-8.64,19.31-19.31,0-4.82-1.77-9.22-4.69-12.6,1.3,2.6,2.04,5.53,2.04,8.63,0,10.66-8.64,19.31-19.31,19.31-2.84,0-5.53-.62-7.95-1.71v18.61c.89.89,1.77,1.77,2.65,2.62v-17.26c2.43,1.1,5.12,1.71,7.95,1.71Z"/>
    <path fill="#C9CACA" d="M33.22,26.36c1.89,0,3.61.66,4.98,1.76-.96-3.31-4.01-5.73-7.63-5.73-4.39,0-7.95,3.56-7.95,7.95,0,2.51,1.16,4.74,2.97,6.19-.2-.7-.32-1.45-.32-2.22,0-4.39,3.56-7.95,7.95-7.95Z"/>
  </g>
  <!-- Wordmark "pathwave" — 우측, 마크 세로 중앙 정렬 -->
  <text x="85" y="56" fill="#FFFFFF" font-size="48" font-weight="700" letter-spacing="-1.5">pathwave</text>
</svg>
