<?xml version="1.0" encoding="UTF-8"?>
<svg xmlns="http://www.w3.org/2000/svg" viewBox="117 163 374 457">
<path fill-rule="nonzero" fill="#FFFFFF" d="M 332.324219 179.335938 C 233.609375 163.734375 136.5 236.882812 124.394531 337.375 C 117.570312 386.417969 131.234375 438.175781 161.609375 477.023438 C 170.367188 488.589844 180.042969 498.832031 190.25 508.992188 L 190.25 359.242188 C 190.25 295.261719 242.113281 243.398438 306.089844 243.398438 C 351.457031 243.398438 390.707031 269.488281 409.71875 307.46875 C 427.234375 327.765625 437.851562 354.183594 437.851562 383.097656 C 437.851562 447.074219 385.988281 498.941406 322.007812 498.941406 C 304.996094 498.941406 288.855469 495.242188 274.304688 488.65625 L 274.304688 592.210938 C 281.847656 599.546875 289.304688 606.574219 296.566406 612.917969 C 304.289062 619.15625 310.84375 617.277344 317.761719 611.222656 C 340.855469 590.207031 370.398438 559.195312 395.164062 535.167969 C 411.519531 518.628906 427.40625 504.636719 442.6875 486.792969 C 472.113281 453.257812 489.765625 408.527344 489.496094 362.820312 L 489.496094 362.515625 C 490.679688 272.351562 421.222656 190.933594 332.324219 179.335938 "/>
<path fill-rule="nonzero" fill="#FFFFFF" d="M 353.792969 359.242188 C 353.792969 354.617188 353.101562 350.160156 351.875 345.929688 C 343.699219 339.351562 333.320312 335.394531 322.007812 335.394531 C 295.664062 335.394531 274.304688 356.75 274.304688 383.097656 C 274.304688 387.722656 274.996094 392.179688 276.226562 396.40625 C 284.402344 402.984375 294.78125 406.941406 306.089844 406.941406 C 332.4375 406.941406 353.792969 385.585938 353.792969 359.242188 "/>
<path fill-rule="nonzero" fill="#C9CACA" d="M 322.007812 498.941406 C 385.988281 498.941406 437.851562 447.074219 437.851562 383.097656 C 437.851562 354.183594 427.234375 327.765625 409.71875 307.46875 C 417.519531 323.054688 421.933594 340.628906 421.933594 359.242188 C 421.933594 423.21875 370.070312 475.082031 306.089844 475.082031 C 289.078125 475.082031 272.941406 471.382812 258.386719 464.796875 L 258.386719 576.476562 C 263.726562 581.832031 269.035156 587.085938 274.304688 592.210938 L 274.304688 488.65625 C 288.855469 495.242188 304.996094 498.941406 322.007812 498.941406 "/>
<path fill-rule="nonzero" fill="#C9CACA" d="M 322.007812 335.394531 C 333.320312 335.394531 343.699219 339.351562 351.875 345.929688 C 346.109375 326.066406 327.8125 311.535156 306.089844 311.535156 C 279.746094 311.535156 258.386719 332.894531 258.386719 359.242188 C 258.386719 374.273438 265.359375 387.664062 276.226562 396.40625 C 274.996094 392.179688 274.304688 387.722656 274.304688 383.097656 C 274.304688 356.75 295.664062 335.394531 322.007812 335.394531 "/>
</svg>
